<svg width="1871" height="1198" viewBox="0 0 1871 1198" fill="none" xmlns="http://www.w3.org/2000/svg">
<g opacity="0.2" clip-path="url(#clip0_2536_326)">
<path d="M-48.9025 914.009C-127.456 914.009 -191 977.553 -191 1056.11C-191 1134.46 -127.456 1198.2 -48.9025 1198.2C29.4557 1198.2 93.1949 1134.66 93.1949 1056.11C93 977.553 29.4557 914.009 -48.9025 914.009ZM-48.9025 1189.04C-122.388 1189.04 -181.839 1129.59 -181.839 1056.11C-181.839 982.621 -122.388 923.17 -48.9025 923.17C24.5827 923.17 84.0337 982.621 84.0337 1056.11C84.0337 1129.4 24.3878 1189.04 -48.9025 1189.04Z" fill="white"/>
<path d="M-48.9012 944.611C-110.301 944.611 -160.201 994.511 -160.201 1055.91C-160.201 1117.31 -110.301 1167.21 -48.9012 1167.21C12.4989 1167.21 62.3987 1117.51 62.3987 1056.11C62.3987 994.511 12.4989 944.611 -48.9012 944.611ZM-48.9012 1150.25C-100.945 1150.25 -143.243 1107.96 -143.243 1055.91C-143.243 1003.87 -100.945 961.569 -48.9012 961.569C3.14267 961.569 45.4405 1003.87 45.4405 1055.91C45.4405 1107.96 3.14267 1150.25 -48.9012 1150.25Z" fill="white"/>
<path d="M-48.902 993.536C-83.403 993.536 -111.472 1021.6 -111.472 1056.11C-111.472 1090.61 -83.598 1118.68 -48.902 1118.68C-14.401 1118.68 13.6677 1090.61 13.6677 1056.11C13.4727 1021.6 -14.401 993.536 -48.902 993.536ZM-48.902 1089.63C-67.4195 1089.63 -82.4284 1074.62 -82.4284 1056.11C-82.4284 1037.59 -67.4195 1022.58 -48.902 1022.58C-30.3845 1022.58 -15.3756 1037.59 -15.3756 1056.11C-15.3756 1074.62 -30.3845 1089.63 -48.902 1089.63Z" fill="white"/>
</g>
<g opacity="0.8" clip-path="url(#clip1_2536_326)">
<path d="M1689.34 807.273C1689.34 808.793 1688.19 809.932 1686.67 809.932C1685.14 809.932 1684 808.793 1684 807.273C1684 805.754 1685.14 804.614 1686.67 804.614C1688.19 804.614 1689.34 805.88 1689.34 807.273Z" fill="white"/>
<path d="M1712.08 807.273C1712.08 808.793 1710.93 809.932 1709.41 809.932C1707.88 809.932 1706.74 808.793 1706.74 807.273C1706.74 805.754 1707.88 804.614 1709.41 804.614C1710.8 804.614 1712.08 805.88 1712.08 807.273Z" fill="white"/>
<path d="M1734.69 807.273C1734.69 808.793 1733.54 809.932 1732.02 809.932C1730.5 809.932 1729.35 808.793 1729.35 807.273C1729.35 805.754 1730.5 804.614 1732.02 804.614C1733.54 804.614 1734.69 805.88 1734.69 807.273Z" fill="white"/>
<path d="M1757.43 807.273C1757.43 808.793 1756.28 809.932 1754.76 809.932C1753.24 809.932 1752.09 808.793 1752.09 807.273C1752.09 805.754 1753.24 804.614 1754.76 804.614C1756.28 804.614 1757.43 805.88 1757.43 807.273Z" fill="white"/>
<path d="M1780.17 807.273C1780.17 808.793 1779.02 809.932 1777.5 809.932C1775.98 809.932 1774.83 808.793 1774.83 807.273C1774.83 805.754 1775.98 804.614 1777.5 804.614C1778.9 804.614 1780.17 805.88 1780.17 807.273Z" fill="white"/>
<path d="M1802.91 807.273C1802.91 808.793 1801.76 809.932 1800.24 809.932C1798.72 809.932 1797.57 808.793 1797.57 807.273C1797.57 805.754 1798.72 804.614 1800.24 804.614C1801.76 804.614 1802.91 805.88 1802.91 807.273Z" fill="white"/>
<path d="M1825.52 807.273C1825.52 808.793 1824.38 809.932 1822.85 809.932C1821.33 809.932 1820.18 808.793 1820.18 807.273C1820.18 805.754 1821.33 804.614 1822.85 804.614C1824.38 804.614 1825.52 805.88 1825.52 807.273Z" fill="white"/>
<path d="M1848.26 807.273C1848.26 808.793 1847.12 809.932 1845.59 809.932C1844.07 809.932 1842.92 808.793 1842.92 807.273C1842.92 805.754 1844.07 804.614 1845.59 804.614C1847.12 804.614 1848.26 805.88 1848.26 807.273Z" fill="white"/>
<path d="M1871 807.273C1871 808.793 1869.86 809.932 1868.33 809.932C1866.81 809.932 1865.66 808.793 1865.66 807.273C1865.66 805.754 1866.81 804.614 1868.33 804.614C1869.73 804.614 1871 805.88 1871 807.273Z" fill="white"/>
<path d="M1689.34 826.139C1689.34 827.659 1688.19 828.798 1686.67 828.798C1685.14 828.798 1684 827.659 1684 826.139C1684 824.62 1685.14 823.48 1686.67 823.48C1688.19 823.48 1689.34 824.62 1689.34 826.139Z" fill="white"/>
<path d="M1712.08 826.139C1712.08 827.659 1710.93 828.798 1709.41 828.798C1707.88 828.798 1706.74 827.659 1706.74 826.139C1706.74 824.62 1707.88 823.48 1709.41 823.48C1710.8 823.48 1712.08 824.62 1712.08 826.139Z" fill="white"/>
<path d="M1734.69 826.139C1734.69 827.659 1733.54 828.798 1732.02 828.798C1730.5 828.798 1729.35 827.659 1729.35 826.139C1729.35 824.62 1730.5 823.48 1732.02 823.48C1733.54 823.48 1734.69 824.62 1734.69 826.139Z" fill="white"/>
<path d="M1757.43 826.139C1757.43 827.659 1756.28 828.798 1754.76 828.798C1753.24 828.798 1752.09 827.659 1752.09 826.139C1752.09 824.62 1753.24 823.48 1754.76 823.48C1756.28 823.48 1757.43 824.62 1757.43 826.139Z" fill="white"/>
<path d="M1780.17 826.139C1780.17 827.659 1779.02 828.798 1777.5 828.798C1775.98 828.798 1774.83 827.659 1774.83 826.139C1774.83 824.62 1775.98 823.48 1777.5 823.48C1778.9 823.48 1780.17 824.62 1780.17 826.139Z" fill="white"/>
<path d="M1802.91 826.139C1802.91 827.659 1801.76 828.798 1800.24 828.798C1798.72 828.798 1797.57 827.659 1797.57 826.139C1797.57 824.62 1798.72 823.48 1800.24 823.48C1801.76 823.48 1802.91 824.62 1802.91 826.139Z" fill="white"/>
<path d="M1825.52 826.139C1825.52 827.659 1824.38 828.798 1822.85 828.798C1821.33 828.798 1820.18 827.659 1820.18 826.139C1820.18 824.62 1821.33 823.48 1822.85 823.48C1824.38 823.48 1825.52 824.62 1825.52 826.139Z" fill="white"/>
<path d="M1848.26 826.139C1848.26 827.659 1847.12 828.798 1845.59 828.798C1844.07 828.798 1842.92 827.659 1842.92 826.139C1842.92 824.62 1844.07 823.48 1845.59 823.48C1847.12 823.48 1848.26 824.62 1848.26 826.139Z" fill="white"/>
<path d="M1871 826.139C1871 827.659 1869.86 828.798 1868.33 828.798C1866.81 828.798 1865.66 827.659 1865.66 826.139C1865.66 824.62 1866.81 823.48 1868.33 823.48C1869.73 823.48 1871 824.62 1871 826.139Z" fill="white"/>
<path d="M1689.34 769.668C1689.34 771.187 1688.19 772.327 1686.67 772.327C1685.14 772.327 1684 771.187 1684 769.668C1684 768.148 1685.14 767.009 1686.67 767.009C1688.19 767.009 1689.34 768.148 1689.34 769.668Z" fill="white"/>
<path d="M1712.08 769.668C1712.08 771.187 1710.93 772.327 1709.41 772.327C1707.88 772.327 1706.74 771.187 1706.74 769.668C1706.74 768.148 1707.88 767.009 1709.41 767.009C1710.8 767.009 1712.08 768.148 1712.08 769.668Z" fill="white"/>
<path d="M1734.69 769.668C1734.69 771.187 1733.54 772.327 1732.02 772.327C1730.5 772.327 1729.35 771.187 1729.35 769.668C1729.35 768.148 1730.62 767.009 1732.02 767.009C1733.54 767.009 1734.69 768.148 1734.69 769.668Z" fill="white"/>
<path d="M1757.43 769.668C1757.43 771.187 1756.28 772.327 1754.76 772.327C1753.24 772.327 1752.09 771.187 1752.09 769.668C1752.09 768.148 1753.36 767.009 1754.76 767.009C1756.16 767.009 1757.43 768.148 1757.43 769.668Z" fill="white"/>
<path d="M1780.17 769.668C1780.17 771.187 1779.02 772.327 1777.5 772.327C1775.98 772.327 1774.83 771.187 1774.83 769.668C1774.83 768.148 1775.98 767.009 1777.5 767.009C1778.9 767.009 1780.17 768.148 1780.17 769.668Z" fill="white"/>
<path d="M1802.91 769.668C1802.91 771.187 1801.76 772.327 1800.24 772.327C1798.72 772.327 1797.57 771.187 1797.57 769.668C1797.57 768.148 1798.72 767.009 1800.24 767.009C1801.76 767.009 1802.91 768.148 1802.91 769.668Z" fill="white"/>
<path d="M1825.52 769.668C1825.52 771.187 1824.38 772.327 1822.85 772.327C1821.33 772.327 1820.18 771.187 1820.18 769.668C1820.18 768.148 1821.33 767.009 1822.85 767.009C1824.38 767.009 1825.52 768.148 1825.52 769.668Z" fill="white"/>
<path d="M1848.26 769.668C1848.26 771.187 1847.12 772.327 1845.59 772.327C1844.07 772.327 1842.92 771.187 1842.92 769.668C1842.92 768.148 1844.07 767.009 1845.59 767.009C1847.12 767.009 1848.26 768.148 1848.26 769.668Z" fill="white"/>
<path d="M1871 769.668C1871 771.187 1869.86 772.327 1868.33 772.327C1866.81 772.327 1865.66 771.187 1865.66 769.668C1865.66 768.148 1866.81 767.009 1868.33 767.009C1869.73 767.009 1871 768.148 1871 769.668Z" fill="white"/>
<path d="M1689.34 788.534C1689.34 790.053 1688.19 791.193 1686.67 791.193C1685.14 791.193 1684 789.927 1684 788.534C1684 787.015 1685.14 785.875 1686.67 785.875C1688.19 785.875 1689.34 787.015 1689.34 788.534Z" fill="white"/>
<path d="M1712.08 788.534C1712.08 790.053 1710.93 791.193 1709.41 791.193C1707.88 791.193 1706.74 790.053 1706.74 788.534C1706.74 787.015 1707.88 785.875 1709.41 785.875C1710.8 785.875 1712.08 787.015 1712.08 788.534Z" fill="white"/>
<path d="M1734.69 788.534C1734.69 790.053 1733.54 791.193 1732.02 791.193C1730.5 791.193 1729.35 790.053 1729.35 788.534C1729.35 787.015 1730.5 785.875 1732.02 785.875C1733.54 785.875 1734.69 787.015 1734.69 788.534Z" fill="white"/>
<path d="M1757.43 788.534C1757.43 790.053 1756.28 791.193 1754.76 791.193C1753.24 791.193 1752.09 790.053 1752.09 788.534C1752.09 787.015 1753.24 785.875 1754.76 785.875C1756.28 785.875 1757.43 787.015 1757.43 788.534Z" fill="white"/>
<path d="M1780.17 788.534C1780.17 790.053 1779.02 791.193 1777.5 791.193C1775.98 791.193 1774.83 790.053 1774.83 788.534C1774.83 787.015 1775.98 785.875 1777.5 785.875C1778.9 785.875 1780.17 787.015 1780.17 788.534Z" fill="white"/>
<path d="M1802.91 788.534C1802.91 790.053 1801.76 791.193 1800.24 791.193C1798.72 791.193 1797.57 790.053 1797.57 788.534C1797.57 787.015 1798.72 785.875 1800.24 785.875C1801.76 785.875 1802.91 787.015 1802.91 788.534Z" fill="white"/>
<path d="M1825.52 788.534C1825.52 790.053 1824.38 791.193 1822.85 791.193C1821.33 791.193 1820.18 790.053 1820.18 788.534C1820.18 787.015 1821.33 785.875 1822.85 785.875C1824.38 785.875 1825.52 787.015 1825.52 788.534Z" fill="white"/>
<path d="M1848.26 788.534C1848.26 790.053 1847.12 791.193 1845.59 791.193C1844.07 791.193 1842.92 790.053 1842.92 788.534C1842.92 787.015 1844.07 785.875 1845.59 785.875C1847.12 785.875 1848.26 787.015 1848.26 788.534Z" fill="white"/>
<path d="M1871 788.534C1871 790.053 1869.86 791.193 1868.33 791.193C1866.81 791.193 1865.66 790.053 1865.66 788.534C1865.66 787.015 1866.81 785.875 1868.33 785.875C1869.73 785.875 1871 787.015 1871 788.534Z" fill="white"/>
<path d="M1689.34 844.879C1689.34 846.398 1688.19 847.538 1686.67 847.538C1685.14 847.538 1684 846.398 1684 844.879C1684 843.359 1685.14 842.22 1686.67 842.22C1688.19 842.22 1689.34 843.486 1689.34 844.879Z" fill="white"/>
<path d="M1712.08 844.879C1712.08 846.398 1710.93 847.538 1709.41 847.538C1707.88 847.538 1706.74 846.398 1706.74 844.879C1706.74 843.359 1707.88 842.22 1709.41 842.22C1710.8 842.22 1712.08 843.486 1712.08 844.879Z" fill="white"/>
<path d="M1734.69 844.879C1734.69 846.398 1733.54 847.538 1732.02 847.538C1730.5 847.538 1729.35 846.398 1729.35 844.879C1729.35 843.359 1730.5 842.22 1732.02 842.22C1733.54 842.22 1734.69 843.486 1734.69 844.879Z" fill="white"/>
<path d="M1757.43 844.879C1757.43 846.398 1756.28 847.538 1754.76 847.538C1753.24 847.538 1752.09 846.398 1752.09 844.879C1752.09 843.359 1753.24 842.22 1754.76 842.22C1756.28 842.22 1757.43 843.486 1757.43 844.879Z" fill="white"/>
<path d="M1780.17 844.879C1780.17 846.398 1779.02 847.538 1777.5 847.538C1775.98 847.538 1774.83 846.398 1774.83 844.879C1774.83 843.359 1775.98 842.22 1777.5 842.22C1778.9 842.22 1780.17 843.486 1780.17 844.879Z" fill="white"/>
<path d="M1802.91 844.879C1802.91 846.398 1801.76 847.538 1800.24 847.538C1798.72 847.538 1797.57 846.398 1797.57 844.879C1797.57 843.359 1798.72 842.22 1800.24 842.22C1801.76 842.22 1802.91 843.486 1802.91 844.879Z" fill="white"/>
<path d="M1825.52 844.879C1825.52 846.398 1824.38 847.538 1822.85 847.538C1821.33 847.538 1820.18 846.398 1820.18 844.879C1820.18 843.359 1821.33 842.22 1822.85 842.22C1824.38 842.22 1825.52 843.486 1825.52 844.879Z" fill="white"/>
<path d="M1848.26 844.879C1848.26 846.398 1847.12 847.538 1845.59 847.538C1844.07 847.538 1842.92 846.398 1842.92 844.879C1842.92 843.359 1844.07 842.22 1845.59 842.22C1847.12 842.22 1848.26 843.486 1848.26 844.879Z" fill="white"/>
<path d="M1871 844.879C1871 846.398 1869.86 847.538 1868.33 847.538C1866.81 847.538 1865.66 846.398 1865.66 844.879C1865.66 843.359 1866.81 842.22 1868.33 842.22C1869.73 842.22 1871 843.486 1871 844.879Z" fill="white"/>
<path d="M1689.34 863.745C1689.34 865.264 1688.19 866.404 1686.67 866.404C1685.14 866.404 1684 865.264 1684 863.745C1684 862.225 1685.14 861.086 1686.67 861.086C1688.19 861.086 1689.34 862.225 1689.34 863.745Z" fill="white"/>
<path d="M1712.08 863.745C1712.08 865.264 1710.93 866.404 1709.41 866.404C1707.88 866.404 1706.74 865.264 1706.74 863.745C1706.74 862.225 1707.88 861.086 1709.41 861.086C1710.8 861.086 1712.08 862.225 1712.08 863.745Z" fill="white"/>
<path d="M1734.69 863.745C1734.69 865.264 1733.54 866.404 1732.02 866.404C1730.5 866.404 1729.35 865.264 1729.35 863.745C1729.35 862.225 1730.5 861.086 1732.02 861.086C1733.54 861.086 1734.69 862.225 1734.69 863.745Z" fill="white"/>
<path d="M1754.76 866.404C1756.23 866.404 1757.43 865.213 1757.43 863.745C1757.43 862.276 1756.23 861.086 1754.76 861.086C1753.29 861.086 1752.09 862.276 1752.09 863.745C1752.09 865.213 1753.29 866.404 1754.76 866.404Z" fill="white"/>
<path d="M1780.17 863.745C1780.17 865.264 1779.02 866.404 1777.5 866.404C1775.98 866.404 1774.83 865.264 1774.83 863.745C1774.83 862.225 1775.98 861.086 1777.5 861.086C1778.9 861.086 1780.17 862.225 1780.17 863.745Z" fill="white"/>
<path d="M1802.91 863.745C1802.91 865.264 1801.76 866.404 1800.24 866.404C1798.72 866.404 1797.57 865.264 1797.57 863.745C1797.57 862.225 1798.72 861.086 1800.24 861.086C1801.76 861.086 1802.91 862.225 1802.91 863.745Z" fill="white"/>
<path d="M1825.52 863.745C1825.52 865.264 1824.38 866.404 1822.85 866.404C1821.33 866.404 1820.18 865.264 1820.18 863.745C1820.18 862.225 1821.33 861.086 1822.85 861.086C1824.38 861.086 1825.52 862.225 1825.52 863.745Z" fill="white"/>
<path d="M1845.59 866.404C1847.07 866.404 1848.26 865.213 1848.26 863.745C1848.26 862.276 1847.07 861.086 1845.59 861.086C1844.12 861.086 1842.92 862.276 1842.92 863.745C1842.92 865.213 1844.12 866.404 1845.59 866.404Z" fill="white"/>
<path d="M1871 863.745C1871 865.264 1869.86 866.404 1868.33 866.404C1866.81 866.404 1865.66 865.264 1865.66 863.745C1865.66 862.225 1866.81 861.086 1868.33 861.086C1869.73 861.086 1871 862.225 1871 863.745Z" fill="white"/>
<path d="M1689.34 882.61C1689.34 884.13 1688.19 885.269 1686.67 885.269C1685.14 885.269 1684 884.13 1684 882.61C1684 881.091 1685.14 879.951 1686.67 879.951C1688.19 879.951 1689.34 881.091 1689.34 882.61Z" fill="white"/>
<path d="M1712.08 882.61C1712.08 884.13 1710.93 885.269 1709.41 885.269C1707.88 885.269 1706.74 884.13 1706.74 882.61C1706.74 881.091 1707.88 879.951 1709.41 879.951C1710.8 879.951 1712.08 881.091 1712.08 882.61Z" fill="white"/>
<path d="M1734.69 882.61C1734.69 884.13 1733.54 885.269 1732.02 885.269C1730.5 885.269 1729.35 884.13 1729.35 882.61C1729.35 881.091 1730.5 879.951 1732.02 879.951C1733.54 879.951 1734.69 881.091 1734.69 882.61Z" fill="white"/>
<path d="M1757.43 882.61C1757.43 884.13 1756.28 885.269 1754.76 885.269C1753.24 885.269 1752.09 884.13 1752.09 882.61C1752.09 881.091 1753.24 879.951 1754.76 879.951C1756.28 879.951 1757.43 881.091 1757.43 882.61Z" fill="white"/>
<path d="M1780.17 882.61C1780.17 884.13 1779.02 885.269 1777.5 885.269C1775.98 885.269 1774.83 884.13 1774.83 882.61C1774.83 881.091 1775.98 879.951 1777.5 879.951C1778.9 879.951 1780.17 881.091 1780.17 882.61Z" fill="white"/>
<path d="M1802.91 882.61C1802.91 884.13 1801.76 885.269 1800.24 885.269C1798.72 885.269 1797.57 884.13 1797.57 882.61C1797.57 881.091 1798.72 879.951 1800.24 879.951C1801.76 879.951 1802.91 881.091 1802.91 882.61Z" fill="white"/>
<path d="M1825.52 882.61C1825.52 884.13 1824.38 885.269 1822.85 885.269C1821.33 885.269 1820.18 884.13 1820.18 882.61C1820.18 881.091 1821.33 879.951 1822.85 879.951C1824.38 879.951 1825.52 881.091 1825.52 882.61Z" fill="white"/>
<path d="M1848.26 882.61C1848.26 884.13 1847.12 885.269 1845.59 885.269C1844.07 885.269 1842.92 884.13 1842.92 882.61C1842.92 881.091 1844.07 879.951 1845.59 879.951C1847.12 879.951 1848.26 881.091 1848.26 882.61Z" fill="white"/>
<path d="M1871 882.61C1871 884.13 1869.86 885.269 1868.33 885.269C1866.81 885.269 1865.66 884.13 1865.66 882.61C1865.66 881.091 1866.81 879.951 1868.33 879.951C1869.73 879.951 1871 881.091 1871 882.61Z" fill="white"/>
<path d="M1689.34 901.349C1689.34 902.869 1688.19 904.008 1686.67 904.008C1685.14 904.008 1684 902.869 1684 901.349C1684 899.83 1685.14 898.69 1686.67 898.69C1688.19 898.69 1689.34 899.957 1689.34 901.349Z" fill="white"/>
<path d="M1712.08 901.349C1712.08 902.869 1710.93 904.008 1709.41 904.008C1707.88 904.008 1706.74 902.869 1706.74 901.349C1706.74 899.83 1707.88 898.69 1709.41 898.69C1710.8 898.69 1712.08 899.957 1712.08 901.349Z" fill="white"/>
<path d="M1734.69 901.349C1734.69 902.869 1733.54 904.008 1732.02 904.008C1730.5 904.008 1729.35 902.869 1729.35 901.349C1729.35 899.83 1730.5 898.69 1732.02 898.69C1733.54 898.69 1734.69 899.957 1734.69 901.349Z" fill="white"/>
<path d="M1757.43 901.349C1757.43 902.869 1756.28 904.008 1754.76 904.008C1753.24 904.008 1752.09 902.869 1752.09 901.349C1752.09 899.83 1753.24 898.69 1754.76 898.69C1756.28 898.69 1757.43 899.957 1757.43 901.349Z" fill="white"/>
<path d="M1780.17 901.349C1780.17 902.869 1779.02 904.008 1777.5 904.008C1775.98 904.008 1774.83 902.869 1774.83 901.349C1774.83 899.83 1775.98 898.69 1777.5 898.69C1778.9 898.69 1780.17 899.957 1780.17 901.349Z" fill="white"/>
<path d="M1802.91 901.349C1802.91 902.869 1801.76 904.008 1800.24 904.008C1798.72 904.008 1797.57 902.869 1797.57 901.349C1797.57 899.83 1798.72 898.69 1800.24 898.69C1801.76 898.69 1802.91 899.957 1802.91 901.349Z" fill="white"/>
<path d="M1825.52 901.349C1825.52 902.869 1824.38 904.008 1822.85 904.008C1821.33 904.008 1820.18 902.869 1820.18 901.349C1820.18 899.83 1821.33 898.69 1822.85 898.69C1824.38 898.69 1825.52 899.957 1825.52 901.349Z" fill="white"/>
<path d="M1848.26 901.349C1848.26 902.869 1847.12 904.008 1845.59 904.008C1844.07 904.008 1842.92 902.869 1842.92 901.349C1842.92 899.83 1844.07 898.69 1845.59 898.69C1847.12 898.69 1848.26 899.957 1848.26 901.349Z" fill="white"/>
<path d="M1871 901.349C1871 902.869 1869.86 904.008 1868.33 904.008C1866.81 904.008 1865.66 902.869 1865.66 901.349C1865.66 899.83 1866.81 898.69 1868.33 898.69C1869.73 898.69 1871 899.957 1871 901.349Z" fill="white"/>
</g>
<g opacity="0.3">
<path d="M1682.81 93.2221L1692.47 102.881L1666.78 128.564L1641.1 102.881L1650.68 93.2953L1666.71 109.32L1682.81 93.2221Z" fill="white"/>
<path d="M1682.81 58.5395L1692.39 68.1251L1666.71 93.8085L1641.1 68.1982L1650.76 58.5395L1666.78 74.5642L1682.81 58.5395Z" fill="white"/>
<path d="M1682.73 23.7826L1692.39 33.4413L1666.78 59.0516L1641.1 33.3682L1650.68 23.7826L1666.71 39.8073L1682.73 23.7826Z" fill="white"/>
<path d="M1682.81 -10.9741L1692.46 -1.31542L1666.78 24.368L1641.1 -1.31543L1650.76 -10.9741L1666.78 5.05054L1682.81 -10.9741Z" fill="white"/>
</g>
<path opacity="0.3" d="M715 826.562C701.071 840.491 678.377 840.491 664.447 826.562C650.518 812.632 650.518 789.938 664.447 776.009L715 826.562Z" fill="white"/>
<g opacity="0.3">
<path d="M769.486 547.899C780.205 547.899 788.937 539.173 788.937 528.462C788.937 517.751 780.205 509.026 769.486 509.026L769.486 547.899Z" fill="white"/>
<path d="M739.141 547.899C749.861 547.899 758.592 539.173 758.592 528.462C758.592 517.751 749.861 509.026 739.141 509.026L739.141 547.899Z" fill="white"/>
<path d="M708.796 547.899C719.515 547.899 728.247 539.173 728.247 528.462C728.247 517.751 719.515 509.026 708.796 509.026V547.899Z" fill="white"/>
</g>
<g opacity="0.3">
<path d="M67.3012 162.919L67.3012 150.998L99 150.998L99 182.697L87.1694 182.697L87.1694 162.919L67.3012 162.919Z" fill="white"/>
<path d="M45.8989 184.323L45.8989 172.492L77.5977 172.492L77.5977 204.101L65.6768 204.101L65.6767 184.323L45.8989 184.323Z" fill="white"/>
<path d="M24.4951 205.817L24.4951 193.896L56.1035 193.896L56.1035 225.595L44.2729 225.595L44.2729 205.817L24.4951 205.817Z" fill="white"/>
<path d="M3.00143 227.22L3.00143 215.299L34.7002 215.299L34.7002 246.998L22.7793 246.998L22.7793 227.22L3.00143 227.22Z" fill="white"/>
</g>
<defs>
<clipPath id="clip0_2536_326">
<rect width="284" height="284" fill="white" transform="translate(-191 914.009)"/>
</clipPath>
<clipPath id="clip1_2536_326">
<rect width="187" height="137" fill="white" transform="translate(1684 767.009)"/>
</clipPath>
</defs>
</svg>
