<svg width="96" height="96" viewBox="0 0 96 96" fill="none" xmlns="http://www.w3.org/2000/svg">
<g opacity="0.6">
<path d="M64.3003 11.9214L64.3003 0.000446321L95.9991 0.000442505L95.9991 31.6992L84.1685 31.6992L84.1685 11.9214L64.3003 11.9214Z" fill="white"/>
<path d="M42.898 33.3257L42.898 21.4951L74.5967 21.4951L74.5967 53.1035L62.6758 53.1035L62.6758 33.3257L42.898 33.3257Z" fill="white"/>
<path d="M21.4941 54.8178L21.4941 42.8969L53.1026 42.8969L53.1026 74.5957L41.272 74.5957L41.272 54.8178L21.4941 54.8178Z" fill="white"/>
<path d="M6.74625e-06 76.2221L5.98946e-06 64.3012L31.6988 64.3012L31.6988 96L19.7779 96L19.7779 76.2221L6.74625e-06 76.2221Z" fill="white"/>
</g>
</svg>
